<?xml version="1.0" standalone="no"?>
<!DOCTYPE svg PUBLIC "-//W3C//DTD SVG 20010904//EN"
 "http://www.w3.org/TR/2001/REC-SVG-20010904/DTD/svg10.dtd">
<svg version="1.0" xmlns="http://www.w3.org/2000/svg"
 width="512.000000pt" height="512.000000pt" viewBox="0 0 512.000000 512.000000"
 preserveAspectRatio="xMidYMid meet">

<g transform="translate(0.000000,512.000000) scale(0.100000,-0.100000)"
fill="#000000" stroke="none">
<path d="M1912 5100 c-105 -28 -167 -64 -253 -150 -125 -123 -168 -242 -169
-457 l0 -113 -552 0 c-530 0 -554 -1 -585 -20 -46 -28 -67 -65 -67 -119 0 -34
7 -57 24 -80 36 -52 71 -61 229 -61 l141 0 2 -1732 3 -1733 23 -73 c73 -237
228 -411 447 -504 132 -55 71 -53 1405 -53 1334 0 1273 -2 1405 53 219 93 374
267 447 504 l23 73 3 1733 2 1732 141 0 c158 0 193 9 229 61 17 23 24 46 24
80 0 54 -21 91 -67 119 -31 19 -55 20 -584 20 l-553 0 0 113 c-1 215 -44 334
-169 457 -88 87 -148 122 -257 150 -73 19 -111 20 -648 19 -529 0 -576 -1
-644 -19z m1263 -288 c66 -30 119 -83 146 -146 18 -42 22 -71 23 -166 l1 -115
-785 0 -785 0 1 116 c1 95 5 124 23 165 38 86 112 145 204 164 23 4 285 8 582
7 l540 -2 50 -23z m975 -2419 c0 -1626 -1 -1711 -18 -1768 -46 -150 -163 -267
-322 -321 -53 -18 -109 -19 -1250 -19 -1141 0 -1197 1 -1250 19 -159 54 -276
171 -322 321 -17 57 -18 142 -18 1768 l0 1707 1590 0 1590 0 0 -1707z"/>
<path d="M2500 3573 c-19 -10 -45 -33 -57 -52 l-23 -34 0 -1296 c0 -1268 1
-1297 20 -1328 39 -65 139 -86 200 -43 64 46 60 -48 60 1372 0 1264 -1 1294
-20 1325 -39 65 -117 89 -180 56z"/>
<path d="M1580 3423 c-23 -9 -60 -45 -76 -75 -12 -23 -14 -206 -14 -1155 0
-1054 1 -1130 18 -1162 37 -74 120 -100 189 -61 79 44 73 -58 73 1222 0 1116
-1 1144 -20 1175 -10 18 -33 39 -49 48 -29 15 -91 19 -121 8z"/>
<path d="M3413 3411 c-67 -42 -63 39 -63 -1221 0 -1278 -6 -1176 73 -1220 69
-39 152 -13 189 61 17 32 18 108 18 1162 0 1222 3 1153 -54 1206 -36 34 -118
40 -163 12z"/>
</g>
</svg>
